<svg width="1386" height="496" viewBox="0 0 1386 496" fill="none" xmlns="http://www.w3.org/2000/svg">
<path d="M194.339 188H118.662V46.5142H48V0H265V46.5142H194.339V188Z" fill="#AE2E28"/>
<path d="M525 188H453.561C450.292 183.283 447.99 177.256 446.655 169.922C445.469 164.239 443.707 158.674 441.365 153.22C439.018 147.756 434.978 143.218 429.239 139.597C423.511 135.967 414.997 134.024 403.705 133.767H354.603V188H279V0H401.948C431.332 0 455.042 2.29179 473.087 6.87537C491.127 11.4589 504.29 18.6643 512.575 28.4914C520.856 38.3186 525 51.1436 525 66.9569C525 80.1483 522.126 91.2406 516.389 100.234C510.659 109.217 501.6 116.331 489.22 121.575C501.192 126.736 508.954 132.919 512.506 140.129C516.064 147.33 518.26 155.25 519.095 163.89C519.939 171.582 521.906 179.617 525 188ZM354.603 87.3814L397.8 87.2529C409.855 87.2529 419.354 86.6846 426.304 85.5478C433.25 84.4112 438.379 82.8665 441.682 80.9093C444.995 78.9429 447.113 76.7612 448.026 74.364C448.948 71.9576 449.415 69.4871 449.415 66.9569C449.415 64.4175 448.948 61.9241 448.026 59.4765C447.113 57.0335 444.995 54.8334 441.682 52.876C438.379 50.9099 433.25 49.3559 426.304 48.2193C419.354 47.0825 409.855 46.5142 397.8 46.5142H354.603V87.3814Z" fill="#AE2E28"/>
<path d="M759 188H542V0H749.072V46.5142H617.602V75.9958H728.739V112.151H617.602V141.486H759V188Z" fill="#AE2E28"/>
<path d="M1043 188H953.211L851.503 60.7965V188H776V0H865.792L967.497 126.562V0H1043V188Z" fill="#AE2E28"/>
<path d="M1190.41 188H1070V0H1190.41C1239.66 0 1275.07 7.20538 1296.63 21.6162C1314.02 33.2401 1323.93 49.0534 1326.37 69.0471C1327.46 77.6917 1328 86.0338 1328 94.0733C1328 102.021 1327.47 110.336 1326.42 119.026C1325.38 127.717 1322.6 136.146 1318.08 144.309C1313.56 152.477 1306.39 159.834 1296.56 166.384C1286.74 172.938 1273.29 178.182 1256.19 182.115C1239.1 186.038 1217.17 188 1190.41 188ZM1183.26 141.486C1221.63 141.486 1243.33 131.361 1248.35 111.106C1249.69 105.422 1250.37 99.7478 1250.37 94.0733C1250.37 88.3072 1249.67 82.6052 1248.3 76.9673C1246.91 71.3342 1243.98 66.2236 1239.5 61.64C1235.03 57.0564 1228.32 53.3896 1219.37 50.6394C1210.43 47.8892 1198.39 46.5142 1183.26 46.5142H1145.51V141.486H1183.26Z" fill="#AE2E28"/>
<path d="M108.868 395C84.5389 395 64.9313 392.267 50.0457 386.8C35.1601 381.33 23.8248 373.819 16.0441 364.25C8.27221 354.674 3.04558 343.643 0.368628 331.152H80.519C86.4522 340.059 95.9006 344.51 108.868 344.51C121.823 344.51 131.271 340.059 137.218 331.152C137.718 330.272 137.972 329.482 137.972 328.787C137.972 326.428 134.979 324.657 129.003 323.484C123.021 322.301 114.09 321.401 102.215 320.786C87.2464 320.09 71.5314 318.434 55.0661 315.815C18.3524 309.87 0 294.441 0 269.526C0 267.434 0.122876 265.21 0.368628 262.847C3.04558 250.349 8.27221 239.316 16.0441 229.749C23.8248 220.172 35.1601 212.659 50.0457 207.201C64.9313 201.734 84.5389 199 108.868 199C133.198 199 152.805 201.734 167.691 207.201C182.576 212.659 193.903 220.172 201.675 229.749C209.456 239.316 214.687 250.349 217.368 262.847H137.218C131.271 253.931 121.823 249.472 108.868 249.472C95.9006 249.472 86.4522 253.931 80.519 262.847C80.0977 263.545 79.887 264.2 79.887 264.811C79.887 266.916 82.7483 268.471 88.4708 269.47C94.2021 270.475 102.654 271.323 113.818 272.021C124.983 272.717 136.875 273.855 149.505 275.433C162.131 277.001 173.94 279.726 184.929 283.615C195.926 287.507 204.523 293.256 210.715 300.862C215.569 306.724 218 314.154 218 323.154C218 325.685 217.789 328.356 217.368 331.152C214.687 343.643 209.456 354.674 201.675 364.25C193.903 373.819 182.576 381.33 167.691 386.8C152.805 392.267 133.198 395 108.868 395Z" fill="#AE2E28"/>
<path d="M452 391H235V203H442.072V249.514H310.602V278.997H421.739V315.151H310.602V344.485H452V391Z" fill="#AE2E28"/>
<path d="M602.34 391H526.662V249.514H456V203H673V249.514H602.34V391Z" fill="#AE2E28"/>
<path d="M820.664 391H745.337V249.514H675V203H891V249.514H820.664V391Z" fill="#AE2E28"/>
<path d="M1122 391H906V203H1112.12V249.514H981.254V278.997H1091.88V315.151H981.254V344.485H1122V391Z" fill="#AE2E28"/>
<path d="M1385 391H1313.85C1310.6 386.284 1308.3 380.255 1306.97 372.922C1305.79 367.239 1304.04 361.675 1301.71 356.221C1299.37 350.755 1295.34 346.218 1289.63 342.596C1283.92 338.968 1275.44 337.023 1264.2 336.768H1215.3V391H1140V203H1262.45C1291.71 203 1315.33 205.292 1333.3 209.875C1351.26 214.459 1364.37 221.664 1372.63 231.492C1380.87 241.32 1385 254.143 1385 269.956C1385 283.148 1382.14 294.24 1376.42 303.233C1370.72 312.217 1361.7 319.331 1349.37 324.574C1361.29 329.735 1369.02 335.92 1372.56 343.128C1376.1 350.329 1378.29 358.25 1379.12 366.889C1379.96 374.581 1381.92 382.617 1385 391ZM1215.3 290.38L1258.32 290.252C1270.32 290.252 1279.78 289.685 1286.71 288.548C1293.62 287.411 1298.73 285.866 1302.02 283.91C1305.32 281.943 1307.43 279.761 1308.34 277.364C1309.26 274.957 1309.72 272.486 1309.72 269.956C1309.72 267.418 1309.26 264.924 1308.34 262.477C1307.43 260.032 1305.32 257.832 1302.02 255.877C1298.73 253.91 1293.62 252.356 1286.71 251.219C1279.78 250.082 1270.32 249.514 1258.32 249.514H1215.3V290.38Z" fill="#AE2E28"/>
<path d="M336.257 412.775L340.63 400L345.821 400.487L338.664 413L336.257 412.775Z" fill="#192ED5"/>
<path d="M1006.61 490V421.68H1035.4C1042.69 421.68 1049.09 423.111 1054.62 425.974C1060.22 428.837 1064.55 432.839 1067.61 437.979C1070.73 443.119 1072.29 449.073 1072.29 455.84C1072.29 462.607 1070.73 468.56 1067.61 473.701C1064.55 478.841 1060.22 482.842 1054.62 485.705C1049.09 488.568 1042.69 490 1035.4 490H1006.61ZM1016.37 481.509H1034.81C1040.47 481.509 1045.35 480.435 1049.45 478.288C1053.62 476.141 1056.84 473.147 1059.11 469.309C1061.39 465.405 1062.53 460.915 1062.53 455.84C1062.53 450.699 1061.39 446.21 1059.11 442.371C1056.84 438.532 1053.62 435.539 1049.45 433.392C1045.35 431.245 1040.47 430.171 1034.81 430.171H1016.37V481.509Z" fill="#AE2E28"/>
<path d="M927.401 490V421.68H935.404L980.593 477.8H976.396V421.68H986.156V490H978.153L932.964 433.88H937.161V490H927.401Z" fill="#AE2E28"/>
<path d="M845.571 490L876.51 421.68H886.173L917.21 490H906.962L879.341 427.145H883.245L855.624 490H845.571ZM858.747 472.92L861.382 465.112H899.837L902.667 472.92H858.747Z" fill="#AE2E28"/>
<path d="M785.004 490V421.68H811.649C817.635 421.68 822.743 422.623 826.972 424.51C831.201 426.397 834.455 429.13 836.732 432.709C839.01 436.287 840.148 440.549 840.148 445.494C840.148 450.439 839.01 454.701 836.732 458.28C834.455 461.793 831.201 464.494 826.972 466.381C822.743 468.267 817.635 469.211 811.649 469.211H790.372L794.764 464.721V490H785.004ZM830.681 490L813.308 465.209H823.751L841.319 490H830.681ZM794.764 465.697L790.372 460.915H811.356C817.603 460.915 822.32 459.581 825.508 456.913C828.762 454.181 830.388 450.374 830.388 445.494C830.388 440.614 828.762 436.84 825.508 434.173C822.32 431.505 817.603 430.171 811.356 430.171H790.372L794.764 425.291V465.697Z" fill="#AE2E28"/>
<path d="M711.137 490V421.68H741.783C749.656 421.68 755.708 423.274 759.937 426.462C764.166 429.585 766.281 433.88 766.281 439.345C766.281 443.054 765.435 446.177 763.743 448.715C762.117 451.253 759.904 453.205 757.107 454.571C754.309 455.937 751.283 456.621 748.03 456.621L749.787 453.693C753.691 453.693 757.139 454.376 760.132 455.742C763.125 457.109 765.5 459.126 767.257 461.793C769.014 464.396 769.892 467.649 769.892 471.553C769.892 477.409 767.68 481.964 763.255 485.217C758.896 488.406 752.389 490 743.735 490H711.137ZM720.897 482.094H743.345C748.746 482.094 752.877 481.183 755.74 479.361C758.603 477.539 760.035 474.677 760.035 470.773C760.035 466.803 758.603 463.908 755.74 462.086C752.877 460.264 748.746 459.353 743.345 459.353H720.019V451.448H740.905C745.85 451.448 749.689 450.537 752.422 448.715C755.155 446.893 756.521 444.16 756.521 440.517C756.521 436.873 755.155 434.14 752.422 432.318C749.689 430.496 745.85 429.585 740.905 429.585H720.897V482.094Z" fill="#AE2E28"/>
<path d="M680.923 490V421.68H690.683V490H680.923Z" fill="#AE2E28"/>
<path d="M637.207 490V430.171H613.783V421.68H670.293V430.171H646.869V490H637.207Z" fill="#AE2E28"/>
<path d="M572.076 490V421.68H581.836V481.509H618.827V490H572.076Z" fill="#AE2E28"/>
<path d="M523.938 491.43C506.888 491.43 495.008 481.86 495.008 460.41V421.8H504.908V459.86C504.908 476.03 512.498 482.52 524.048 482.52C535.378 482.52 543.078 476.14 543.078 459.86V421.8H552.868V460.41C552.868 481.86 541.098 491.43 523.938 491.43Z" fill="#192ED5"/>
<path d="M407.05 490V420.37H407.93L442.03 459.64L475.25 420.37H476.13V490H466.23V445.01L441.81 472.84H440.93L416.95 445.01V490H407.05Z" fill="#192ED5"/>
<path d="M301.85 490L335.73 420.26H336.61L370.49 490H358.94L351.46 474.16H320.11L312.52 490H301.85ZM321.1 472.07H350.47L335.95 441.16L321.1 472.07Z" fill="#192ED5"/>
</svg>
