<?xml version="1.0" standalone="no"?>
<!DOCTYPE svg PUBLIC "-//W3C//DTD SVG 20010904//EN"
 "http://www.w3.org/TR/2001/REC-SVG-20010904/DTD/svg10.dtd">
<svg version="1.0" xmlns="http://www.w3.org/2000/svg"
 width="2079.000000pt" height="744.000000pt" viewBox="0 0 2079.000000 744.000000"
 preserveAspectRatio="xMidYMid meet">

<g transform="translate(0.000000,744.000000) scale(0.100000,-0.100000)"
fill="#ae2e28" stroke="none">
<path d="M720 7090 l0 -350 530 0 530 0 0 -1060 0 -1060 565 0 565 0 0 1060 0
1060 530 0 530 0 0 350 0 350 -1625 0 -1625 0 0 -350z"/>
<path d="M4190 6030 l0 -1410 565 0 565 0 0 410 0 410 353 0 c586 0 703 -22
845 -154 83 -76 132 -183 186 -403 21 -86 47 -166 67 -203 l32 -60 533 0 c294
0 534 2 534 4 0 2 -7 23 -15 47 -29 82 -55 196 -74 332 -47 322 -137 463 -368
578 l-75 37 57 26 c258 118 422 335 466 619 17 106 6 343 -20 442 -121 463
-556 677 -1471 725 -107 5 -642 10 -1187 10 l-993 0 0 -1410z m2118 699 c252
-27 385 -91 422 -204 18 -53 8 -174 -16 -216 -44 -74 -137 -120 -319 -155 -64
-13 -182 -17 -577 -21 l-498 -5 0 306 0 306 445 0 c246 0 489 -5 543 -11z"/>
<path d="M8130 6030 l0 -1410 1625 0 1625 0 0 350 0 350 -1060 0 -1060 0 0
220 0 220 835 0 835 0 0 270 0 270 -835 0 -835 0 0 220 0 220 985 0 985 0 0
350 0 350 -1550 0 -1550 0 0 -1410z"/>
<path d="M11640 6030 l0 -1410 565 0 565 0 2 954 3 954 762 -954 763 -954 670
0 670 0 0 1410 0 1410 -565 0 -565 0 -2 -946 -3 -946 -760 946 -760 946 -672
0 -673 0 0 -1410z"/>
<path d="M16050 6030 l0 -1411 1098 4 c716 3 1137 8 1212 16 415 41 737 120
966 237 122 62 233 145 326 243 66 70 88 102 138 205 97 199 124 349 124 701
0 393 -44 603 -167 793 -188 290 -542 477 -1067 562 -319 51 -363 53 -1532 57
l-1098 4 0 -1411z m2120 682 c337 -73 495 -199 561 -449 41 -153 26 -442 -30
-569 -79 -178 -255 -288 -561 -350 -71 -15 -158 -18 -522 -22 l-438 -4 0 712
0 712 448 -5 c403 -4 456 -6 542 -25z"/>
<path d="M1335 4444 c-413 -41 -669 -118 -890 -267 -267 -181 -464 -550 -441
-827 19 -226 126 -380 348 -500 211 -114 620 -190 1178 -220 388 -20 540 -55
540 -124 0 -28 -23 -61 -81 -116 -104 -99 -132 -109 -309 -117 -189 -8 -320
35 -422 139 l-58 58 -595 0 -596 0 7 -37 c9 -53 51 -167 87 -238 184 -368 517
-573 1062 -652 176 -26 759 -25 930 0 345 52 577 136 767 279 172 130 306 332
373 563 69 239 31 434 -115 584 -223 228 -584 329 -1380 386 -283 20 -444 41
-497 65 -59 26 -59 57 1 125 58 66 133 110 230 135 221 56 468 -12 568 -158
l15 -22 600 2 601 3 -24 85 c-51 181 -176 387 -306 504 -191 172 -457 279
-828 333 -100 14 -664 27 -765 17z"/>
<path d="M3530 2985 l0 -1405 1625 0 1625 0 0 345 0 345 -1060 0 -1060 0 0
220 0 220 830 0 830 0 0 270 0 270 -830 0 -830 0 0 225 0 225 985 0 985 0 0
345 0 345 -1550 0 -1550 0 0 -1405z"/>
<path d="M6840 4045 l0 -345 530 0 530 0 0 -1060 0 -1060 565 0 565 0 0 1060
0 1060 530 0 530 0 0 345 0 345 -1625 0 -1625 0 0 -345z"/>
<path d="M10130 4045 l0 -345 525 0 525 0 0 -1060 0 -1060 565 0 565 0 0 1060
0 1060 525 0 525 0 0 345 0 345 -1615 0 -1615 0 0 -345z"/>
<path d="M13590 2985 l0 -1405 1620 0 1620 0 0 345 0 345 -1055 0 -1055 0 0
220 0 220 828 2 827 3 3 268 2 267 -830 0 -830 0 0 225 0 225 980 0 980 0 0
345 0 345 -1545 0 -1545 0 0 -1405z"/>
<path d="M17100 2986 l0 -1406 565 0 565 0 0 406 0 405 448 -4 c376 -3 457 -6
510 -20 158 -42 268 -129 332 -261 38 -81 62 -154 100 -316 11 -47 34 -113 51
-147 l30 -63 536 0 c470 0 534 2 529 15 -23 62 -58 196 -71 275 -8 52 -20 126
-26 165 -14 87 -42 171 -82 253 -41 84 -137 173 -251 232 -47 25 -86 48 -86
51 0 3 19 15 42 25 24 10 76 41 117 67 175 114 277 255 332 457 30 107 37 342
15 468 -71 405 -370 641 -941 741 -311 54 -324 54 -1562 58 l-1153 4 0 -1405z
m2046 704 c309 -25 452 -88 489 -213 27 -89 12 -187 -37 -243 -104 -118 -345
-154 -1040 -154 l-328 0 0 310 0 310 394 0 c216 0 451 -5 522 -10z"/>
<path d="M5081 1352 c-36 -101 -36 -105 -15 -100 9 2 38 41 65 88 43 75 47 86
31 92 -42 16 -49 9 -81 -80z"/>
<path d="M4866 783 c-93 -192 -206 -426 -252 -520 l-83 -173 78 0 78 0 56 120
57 120 236 0 236 0 56 -120 57 -120 82 0 c46 0 83 3 83 8 -1 17 -497 1026
-506 1029 -5 2 -86 -153 -178 -344z m288 -200 l105 -223 -221 0 c-177 0 -219
3 -215 13 26 69 214 444 219 439 4 -4 54 -107 112 -229z"/>
<path d="M6110 610 l0 -520 70 0 70 0 0 336 c0 304 1 335 16 323 8 -7 90 -100
181 -206 92 -106 170 -193 173 -193 4 0 87 91 185 202 98 112 182 204 186 206
5 2 9 -147 9 -332 l0 -336 70 0 70 0 0 521 c0 304 -4 519 -9 517 -5 -1 -117
-131 -250 -288 -132 -157 -244 -286 -249 -288 -4 -1 -120 128 -257 287 -138
159 -253 290 -257 290 -5 1 -8 -233 -8 -519z"/>
<path d="M7432 748 c4 -403 5 -408 75 -515 87 -133 287 -194 483 -147 80 19
134 49 187 107 102 111 113 166 113 585 l0 332 -69 0 -70 0 -3 -337 c-4 -292
-7 -346 -22 -393 -77 -234 -436 -242 -528 -12 -21 54 -22 72 -26 400 l-4 342
-69 0 -70 0 3 -362z"/>
<path d="M8580 600 l0 -510 350 0 350 0 0 65 0 65 -275 0 -275 0 0 445 0 445
-75 0 -75 0 0 -510z"/>
<path d="M9210 1050 l0 -60 175 0 175 0 0 -450 0 -450 70 0 70 0 0 450 0 450
175 0 175 0 0 60 0 60 -420 0 -420 0 0 -60z"/>
<path d="M10220 600 l0 -510 70 0 70 0 0 510 0 510 -70 0 -70 0 0 -510z"/>
<path d="M10670 600 l0 -510 273 0 c361 1 442 15 525 94 52 48 75 101 76 176
2 114 -53 204 -150 245 l-37 15 41 29 c25 19 50 50 67 86 25 50 27 64 23 131
-6 92 -37 143 -116 190 -78 47 -135 54 -434 54 l-268 0 0 -510z m584 370 c63
-32 88 -66 93 -127 6 -70 -18 -111 -86 -145 -54 -28 -56 -28 -253 -28 l-198 0
0 166 0 166 198 -4 c187 -3 200 -4 246 -28z m60 -450 c60 -31 86 -75 86 -145
0 -64 -26 -107 -82 -137 -41 -22 -56 -23 -275 -26 l-233 -3 0 171 0 171 228
-3 c220 -3 229 -4 276 -28z"/>
<path d="M11780 600 l0 -510 70 0 70 0 0 155 0 155 144 0 c79 0 151 3 159 6
10 4 48 -42 127 -155 l111 -161 75 0 c41 0 74 3 74 6 0 3 -50 76 -111 162 -61
86 -113 161 -115 167 -2 5 22 24 54 41 111 59 171 182 159 323 -11 127 -72
220 -182 274 -81 40 -140 47 -395 47 l-240 0 0 -510z m555 355 c91 -46 134
-127 120 -229 -8 -64 -26 -96 -74 -138 -59 -50 -97 -59 -288 -65 l-173 -6 0
238 0 237 178 -4 c173 -3 178 -4 237 -33z"/>
<path d="M13136 1083 c-21 -43 -446 -983 -446 -989 0 -3 33 -4 72 -2 l73 3 55
127 55 128 274 -3 275 -2 55 -127 56 -128 73 0 c57 0 73 3 70 14 -2 7 -104
236 -228 509 l-225 496 -72 1 c-69 0 -73 -1 -87 -27z m194 -364 c58 -132 107
-245 108 -250 2 -5 -85 -9 -218 -9 -207 0 -222 1 -216 18 21 57 211 482 216
482 3 0 52 -108 110 -241z"/>
<path d="M13910 600 l0 -510 75 0 75 0 2 379 3 378 305 -378 304 -379 58 0 58
0 0 510 0 510 -70 0 -70 0 -2 -380 -3 -381 -305 380 -305 380 -62 1 -63 0 0
-510z"/>
<path d="M15100 599 l0 -511 278 5 c212 3 289 8 331 20 183 54 311 181 356
352 31 120 13 286 -43 389 -38 71 -128 156 -204 194 -111 55 -164 62 -455 62
l-263 0 0 -511z m532 380 c123 -26 224 -105 275 -214 25 -53 28 -71 28 -160
-1 -80 -5 -111 -23 -156 -33 -83 -90 -142 -180 -186 l-76 -38 -208 -3 -208 -3
0 385 0 386 170 0 c93 0 193 -5 222 -11z"/>
</g>
</svg>
